<?xml version="1.0" encoding="UTF-8"?>
<svg version="1.1" xmlns="http://www.w3.org/2000/svg" width="600" height="261">
<path d="M0 0 C198 0 396 0 600 0 C600 86.13 600 172.26 600 261 C402 261 204 261 0 261 C0 174.87 0 88.74 0 0 Z " fill="#FEFDFD" transform="translate(0,0)"/>
<path d="M0 0 C7.92 0 15.84 0 24 0 C24.05607422 2.784375 24.05607422 2.784375 24.11328125 5.625 C24.17896243 8.08335281 24.24540902 10.54168526 24.3125 13 C24.34633789 14.83111328 24.34633789 14.83111328 24.38085938 16.69921875 C24.66299047 27.27942863 24.66299047 27.27942863 29.2277832 36.64453125 C33.75100668 40.10408997 40.81209422 39.17557948 46.28125 39.203125 C47.17179077 39.20882507 48.06233154 39.21452515 48.9798584 39.22039795 C50.86253688 39.22981751 52.74523161 39.23636979 54.62792969 39.24023438 C57.46319656 39.24987486 60.2977174 39.28090019 63.1328125 39.3125 C83.49755215 39.82278147 83.49755215 39.82278147 101 31 C107.41182731 23.28703843 113.56047742 14.4586871 117 5 C118.65 5 120.3 5 122 5 C120.90109517 11.91663627 119.43430815 18.42736799 117 25 C116.34 25 115.68 25 115 25 C114.96261719 25.61746094 114.92523438 26.23492187 114.88671875 26.87109375 C114.19173349 35.8241391 111.53407563 42.75382353 108 51 C64.44 51 20.88 51 -24 51 C-24 49.68 -24 48.36 -24 47 C-22.700625 46.9175 -21.40125 46.835 -20.0625 46.75 C-13.61549519 46.01784803 -8.08122216 44.13325271 -3.5 39.4375 C-0.84357303 35.12080617 -0.79649006 31.18883726 -0.68359375 26.26953125 C-0.66281265 25.51911057 -0.64203156 24.76868988 -0.62062073 23.99552917 C-0.55530074 21.60127816 -0.49632208 19.20691861 -0.4375 16.8125 C-0.39429807 15.18813987 -0.35068324 13.56379067 -0.30664062 11.93945312 C-0.1988611 7.95974498 -0.09965785 3.97995299 0 0 Z " fill="#D70C0D" transform="translate(249,161)"/>
<path d="M0 0 C25.74 0 51.48 0 78 0 C78 1.32 78 2.64 78 4 C77.18015625 4.17015625 76.3603125 4.3403125 75.515625 4.515625 C74.43796875 4.75796875 73.3603125 5.0003125 72.25 5.25 C71.18265625 5.48203125 70.1153125 5.7140625 69.015625 5.953125 C65.66636693 7.11582081 64.14464328 8.19862385 62 11 C61.49082344 16.26149114 62.01841948 20.04604869 64 25 C64.66 25 65.32 25 66 25 C67.37280273 26.77246094 67.37280273 26.77246094 68.93359375 29.234375 C69.7834082 30.56082031 69.7834082 30.56082031 70.65039062 31.9140625 C71.24013672 32.84992188 71.82988281 33.78578125 72.4375 34.75 C73.60168125 36.57887879 74.76700621 38.40703016 75.93359375 40.234375 C76.44978271 41.05131836 76.96597168 41.86826172 77.49780273 42.70996094 C78.96175293 45.02076182 78.96175293 45.02076182 80.69165039 47.11035156 C82 49 82 49 82 52 C82.66 52 83.32 52 84 52 C85.2890625 53.4609375 85.2890625 53.4609375 86.625 55.375 C87.07101562 56.00148437 87.51703125 56.62796875 87.9765625 57.2734375 C89 59 89 59 89 61 C81.90352039 61.55308294 74.82973443 61.86919179 67.7109375 61.71875 C66.54353027 61.69748047 65.37612305 61.67621094 64.17333984 61.65429688 C60.17124288 60.82912224 58.70776908 59.35739872 56.125 56.25 C55.37523159 54.53305067 54.63038008 52.81298469 53.94873047 51.06787109 C51.9547283 46.72170579 48.96359633 42.93542013 46.1875 39.0625 C45.27750244 37.76807983 45.27750244 37.76807983 44.34912109 36.44750977 C34.01555244 21.81128796 23.70564998 8.28431109 5.0625 4.8125 C3.37635305 4.53336666 1.68925678 4.25965068 0 4 C0 2.68 0 1.36 0 0 Z " fill="#D80C0D" transform="translate(382,43)"/>
<path d="M0 0 C23.1 0 46.2 0 70 0 C70 1.65 70 3.3 70 5 C69.11957031 5.17015625 68.23914063 5.3403125 67.33203125 5.515625 C66.17058594 5.75796875 65.00914063 6.0003125 63.8125 6.25 C62.08966797 6.59804688 62.08966797 6.59804688 60.33203125 6.953125 C56.7036384 8.09311244 54.65801044 9.29294878 52 12 C49.16128824 20.18310206 54.71428137 30.56863638 58 38 C58.99407557 40.00295126 59.99338665 42.00332037 61 44 C61.68753301 45.65816784 62.35561283 47.32459336 63 49 C64.14651559 51.92802442 65.34038469 54.68076938 66.75 57.5 C68 60 68 60 68 62 C59.75 62 51.5 62 43 62 C42.505 60.02 42.505 60.02 42 58 C41.34 58 40.68 58 40 58 C38.67663053 54.96295026 37.36830214 51.91963952 36.0625 48.875 C35.68931641 48.0190625 35.31613281 47.163125 34.93164062 46.28125 C33.0412115 41.85321782 31.49977975 37.83913723 31 33 C30.34 33 29.68 33 29 33 C28.78085938 32.31035156 28.56171875 31.62070313 28.3359375 30.91015625 C25.91285683 23.72956353 23.09863457 16.04469997 16.8125 11.375 C16.214375 10.92125 15.61625 10.4675 15 10 C15 9.34 15 8.68 15 8 C10.01716284 6.85948394 5.05531868 5.77774134 0 5 C0 3.35 0 1.7 0 0 Z " fill="#D80A0A" transform="translate(36,42)"/>
<path d="M0 0 C9.24 0 18.48 0 28 0 C28 0.66 28 1.32 28 2 C28.66 2 29.32 2 30 2 C31.35351562 3.72143555 31.35351562 3.72143555 32.90625 6.13671875 C33.48044678 7.01835693 34.05464355 7.89999512 34.64624023 8.80834961 C35.56385132 10.23352905 35.56385132 10.23352905 36.5 11.6875 C49.34210517 33.03207045 49.34210517 33.03207045 70 45 C71.99085446 45.38419998 73.98887313 45.74216322 76 46 C76 47.65 76 49.3 76 51 C52.24 51 28.48 51 4 51 C4 49.35 4 47.7 4 46 C5.48113281 45.85304688 5.48113281 45.85304688 6.9921875 45.703125 C8.27351563 45.55359375 9.55484375 45.4040625 10.875 45.25 C12.15117187 45.11078125 13.42734375 44.9715625 14.7421875 44.828125 C17.99831929 44.33543834 17.99831929 44.33543834 19.4453125 42.296875 C20.973024 35.97085835 19.36662511 31.99758011 16.125 26.5625 C15.72732422 25.87454346 15.32964844 25.18658691 14.91992188 24.4777832 C11.56985299 18.76430064 7.94799941 13.23650696 4.18798828 7.78540039 C2.40720995 5.19482078 1.00041986 3.00125958 0 0 Z " fill="#D90D0D" transform="translate(482,161)"/>
<path d="M0 0 C24.09 0 48.18 0 73 0 C73 1.65 73 3.3 73 5 C72.05898438 5.02578125 71.11796875 5.0515625 70.1484375 5.078125 C60.69063309 5.26107051 60.69063309 5.26107051 53 10 C49.8942833 14.28374717 48.90475773 18.0886335 48.79467773 23.30957031 C48.77473251 24.15013977 48.75478729 24.99070923 48.73423767 25.85675049 C48.70916893 27.20383087 48.70916893 27.20383087 48.68359375 28.578125 C48.66281265 29.5046991 48.64203156 30.43127319 48.62062073 31.38592529 C48.55533039 34.34054272 48.49633569 37.29524768 48.4375 40.25 C48.39429527 42.25521732 48.35068035 44.26042585 48.30664062 46.265625 C48.19889948 51.17699499 48.09967342 56.08843313 48 61 C40.08 61 32.16 61 24 61 C23.96261719 57.89335938 23.92523438 54.78671875 23.88671875 51.5859375 C23.84046906 48.56747514 23.78924786 45.54913509 23.73754883 42.53076172 C23.70435451 40.43773876 23.67630555 38.34462747 23.65356445 36.25146484 C23.61991769 33.23757388 23.56759607 30.22448837 23.51171875 27.2109375 C23.50532883 26.27945892 23.4989389 25.34798035 23.49235535 24.38827515 C23.34805301 17.96959283 22.47259613 13.40576921 17.6875 8.75 C12.13494194 5.1343808 6.45418464 4.54502004 0 4 C0 2.68 0 1.36 0 0 Z " fill="#D70F0F" transform="translate(225,43)"/>
<path d="M0 0 C8.58 0 17.16 0 26 0 C28.3125 6.9375 28.3125 6.9375 29.02075195 9.12475586 C29.59347355 10.78250996 30.29523456 12.3939289 31 14 C32.485 14.495 32.485 14.495 34 15 C34.20496094 14.08476562 34.40992188 13.16953125 34.62109375 12.2265625 C34.89050781 11.03804687 35.15992188 9.84953125 35.4375 8.625 C35.70433594 7.44164062 35.97117188 6.25828125 36.24609375 5.0390625 C37 2 37 2 38 0 C41.96 0 45.92 0 50 0 C47.421875 9.28125 47.421875 9.28125 45.1640625 13.63085938 C42.97838618 17.95734729 41.12873173 22.37708084 39.328125 26.875 C39.00084412 27.68493408 38.67356323 28.49486816 38.33636475 29.3293457 C37.30448409 31.88499626 36.27716827 34.44245232 35.25 37 C34.5458755 38.74621579 33.84145119 40.49231072 33.13671875 42.23828125 C31.42101285 46.49079929 29.70939482 50.74494138 28 55 C26.02 55 24.04 55 22 55 C18.18251069 45.54347826 18.18251069 45.54347826 16.5625 41 C15.07229392 36.96911471 13.14329122 33.20097019 11.1953125 29.375 C8.92417462 24.86241232 7.07960691 20.3109326 5.5625 15.5 C4.59445262 12.47742652 3.46117415 9.89852404 1.8125 7.1875 C0 4 0 4 0 0 Z " fill="#D70D0D" transform="translate(104,161)"/>
<path d="M0 0 C20.13 0 40.26 0 61 0 C61 1.65 61 3.3 61 5 C60.154375 5.08636719 59.30875 5.17273437 58.4375 5.26171875 C51.09241893 6.1715072 45.82628178 7.40101369 40 12 C39.030625 12.70125 38.06125 13.4025 37.0625 14.125 C32.97371521 17.67951691 29.75941751 22.04347826 26.39697266 26.26611328 C24.86120723 28.17226604 23.29883727 30.05418134 21.73046875 31.93359375 C21.15361328 32.62686768 20.57675781 33.3201416 19.98242188 34.03442383 C18.78046495 35.47621628 17.57469421 36.91483742 16.36523438 38.3503418 C13.3273517 41.99913844 10.50218093 45.6574945 7.92578125 49.6484375 C0.78736725 60.53868558 0.78736725 60.53868558 -4.859375 61.99609375 C-8.39001619 61.99963857 -11.5520726 61.73446974 -15 61 C-10.86483749 55.45017664 -6.66726424 49.95235505 -2.42822266 44.48168945 C-0.53433107 42.03022971 1.28064887 39.57902669 3 37 C3.66 37 4.32 37 5 37 C5.309375 35.9790625 5.309375 35.9790625 5.625 34.9375 C6.86992408 32.27788947 7.95429975 30.77366215 9.875 28.625 C15.26553656 22.50957466 17.6278791 17.20526594 18 9 C17.38125 8.690625 16.7625 8.38125 16.125 8.0625 C14.75 7.375 13.375 6.6875 12 6 C9.9625237 5.77141886 7.91959697 5.58975722 5.875 5.4375 C4.23144531 5.31181641 4.23144531 5.31181641 2.5546875 5.18359375 C1.71164062 5.12300781 0.86859375 5.06242187 0 5 C0 3.35 0 1.7 0 0 Z " fill="#D61414" transform="translate(494,43)"/>
<path d="M0 0 C17.16 0 34.32 0 52 0 C52 1.65 52 3.3 52 5 C51.443125 5.13535156 50.88625 5.27070312 50.3125 5.41015625 C41.41805491 7.91923113 36.21282207 12.62908544 31.375 20.4375 C28.05531132 26.45820811 25.71246358 32.70337184 23.4140625 39.16015625 C22.20305662 42.53248282 20.78646199 45.76085059 19.25 49 C17.22989117 53.2935432 15.96350356 57.35766468 15 62 C10.71 62 6.42 62 2 62 C3.71400004 56.60089986 5.61667015 51.4602902 7.96484375 46.30859375 C9.39961089 43.10879232 10.71005919 39.86826096 11.984375 36.6015625 C12.68113692 34.81678005 13.40119846 33.0409708 14.140625 31.2734375 C16.53515626 25.28710934 18.42198819 19.47125133 17 13 C14.834795 10.40005897 14.834795 10.40005897 12 9 C11.01 8.34 10.02 7.68 9 7 C6.72461677 6.33386665 6.72461677 6.33386665 4.3125 5.875 C3.50425781 5.70742188 2.69601563 5.53984375 1.86328125 5.3671875 C1.24839844 5.24601562 0.63351563 5.12484375 0 5 C0 3.35 0 1.7 0 0 Z " fill="#D80A0A" transform="translate(164,42)"/>
<path d="M0 0 C1.74023438 0.08701172 1.74023438 0.08701172 3.515625 0.17578125 C4.68609375 0.22089844 5.8565625 0.26601562 7.0625 0.3125 C8.40054688 0.39951172 8.40054688 0.39951172 9.765625 0.48828125 C5.89648964 6.52837784 1.44709128 12.06943819 -3.01367188 17.6796875 C-11.52458714 27.93382284 -11.52458714 27.93382284 -14.234375 40.48828125 C-12.14535209 43.8019038 -10.43810627 45.13780462 -6.671875 46.234375 C-4.19677194 46.74416185 -1.73975902 47.16233809 0.765625 47.48828125 C0.765625 48.80828125 0.765625 50.12828125 0.765625 51.48828125 C-18.704375 51.48828125 -38.174375 51.48828125 -58.234375 51.48828125 C-58.234375 50.16828125 -58.234375 48.84828125 -58.234375 47.48828125 C-57.37972656 47.29492188 -56.52507812 47.1015625 -55.64453125 46.90234375 C-54.53980469 46.64195312 -53.43507813 46.3815625 -52.296875 46.11328125 C-51.19472656 45.85804688 -50.09257812 45.6028125 -48.95703125 45.33984375 C-48.05855469 45.05882812 -47.16007812 44.7778125 -46.234375 44.48828125 C-45.904375 43.82828125 -45.574375 43.16828125 -45.234375 42.48828125 C-44.161875 42.01390625 -43.089375 41.53953125 -41.984375 41.05078125 C-32.29564975 36.36325051 -24.25180757 28.13968814 -17.875 19.6328125 C-16.234375 17.48828125 -16.234375 17.48828125 -13.484375 14.80078125 C-11.18689038 12.43947761 -9.8118873 10.2388122 -8.32421875 7.33203125 C-4.38120551 0.66141388 -4.38120551 0.66141388 0 0 Z " fill="#D90909" transform="translate(437.234375,160.51171875)"/>
<path d="M0 0 C1.74023438 0.08701172 1.74023438 0.08701172 3.515625 0.17578125 C4.68609375 0.22089844 5.8565625 0.26601562 7.0625 0.3125 C8.40054688 0.39951172 8.40054688 0.39951172 9.765625 0.48828125 C5.89648964 6.52837784 1.44709128 12.06943819 -3.01367188 17.6796875 C-11.43034073 27.94401885 -11.43034073 27.94401885 -14.234375 40.48828125 C-12.95542442 43.43283859 -12.95542442 43.43283859 -11.234375 45.48828125 C-12.224375 45.48828125 -13.214375 45.48828125 -14.234375 45.48828125 C-14.564375 44.82828125 -14.894375 44.16828125 -15.234375 43.48828125 C-15.894375 43.15828125 -16.554375 42.82828125 -17.234375 42.48828125 C-16.904375 39.51828125 -16.574375 36.54828125 -16.234375 33.48828125 C-17.224375 33.48828125 -18.214375 33.48828125 -19.234375 33.48828125 C-19.564375 34.14828125 -19.894375 34.80828125 -20.234375 35.48828125 C-20.234375 34.82828125 -20.234375 34.16828125 -20.234375 33.48828125 C-21.224375 33.48828125 -22.214375 33.48828125 -23.234375 33.48828125 C-23.234375 32.49828125 -23.234375 31.50828125 -23.234375 30.48828125 C-24.554375 30.81828125 -25.874375 31.14828125 -27.234375 31.48828125 C-23.88960304 26.95256776 -20.47382823 22.47627394 -16.984375 18.05078125 C-16.31921875 17.20644531 -15.6540625 16.36210937 -14.96875 15.4921875 C-13.234375 13.48828125 -13.234375 13.48828125 -11.234375 12.48828125 C-10.27714934 10.8290901 -9.32214068 9.16756733 -8.4296875 7.47265625 C-4.32141544 0.6523876 -4.32141544 0.6523876 0 0 Z " fill="#D60D0D" transform="translate(437.234375,160.51171875)"/>
<path d="M0 0 C1.65 0 3.3 0 5 0 C3.90109517 6.91663627 2.43430815 13.42736799 0 20 C-0.66 20 -1.32 20 -2 20 C-2.03738281 20.61746094 -2.07476562 21.23492187 -2.11328125 21.87109375 C-2.80826651 30.8241391 -5.46592437 37.75382353 -9 46 C-52.56 46 -96.12 46 -141 46 C-141 44.68 -141 43.36 -141 42 C-139.700625 41.9175 -138.40125 41.835 -137.0625 41.75 C-129.22228347 40.86103057 -123.14610914 37.97612674 -118 32 C-118 36 -118 36 -119.42578125 37.6328125 C-120.04839844 38.12523437 -120.67101562 38.61765625 -121.3125 39.125 C-121.92738281 39.62257812 -122.54226562 40.12015625 -123.17578125 40.6328125 C-124.74501497 41.80889773 -126.36831757 42.91221171 -128 44 C-69.59 44.495 -69.59 44.495 -10 45 C-7.56128699 37.07651569 -7.56128699 37.07651569 -5.8125 29.125 C-5.65394531 28.24070313 -5.49539063 27.35640625 -5.33203125 26.4453125 C-4.91030128 23.75068722 -4.91030128 23.75068722 -5 20 C-4.01971384 18.65210653 -3.02028865 17.31787285 -2 16 C-2 15.01 -2 14.02 -2 13 C-2.45375 13.495 -2.9075 13.99 -3.375 14.5 C-5 16 -5 16 -7 16 C-7.1546875 16.9590625 -7.1546875 16.9590625 -7.3125 17.9375 C-7.6528125 18.9584375 -7.6528125 18.9584375 -8 20 C-8.99 20.33 -9.98 20.66 -11 21 C-9.2180842 16.08191239 -6.53287406 12.05806427 -3.65625 7.71875 C-2.11766548 5.19314899 -1.00510655 2.77409409 0 0 Z " fill="#BC1517" transform="translate(366,166)"/>
<path d="M0 0 C11.41176471 0 11.41176471 0 16 4 C18.09555583 8.19111165 17.55842023 13.44766121 17 18 C14.78436838 20.97361086 13.26080415 22.36959793 10 24 C6.7 24 3.4 24 0 24 C0 16.08 0 8.16 0 0 Z " fill="#FDFAF9" transform="translate(446,118)"/>
<path d="M0 0 C23.1 0 46.2 0 70 0 C70 1.65 70 3.3 70 5 C69.11957031 5.18175781 68.23914063 5.36351562 67.33203125 5.55078125 C66.17058594 5.80214844 65.00914063 6.05351563 63.8125 6.3125 C62.08966797 6.67794922 62.08966797 6.67794922 60.33203125 7.05078125 C57.10962896 7.96876924 54.76626693 9.14019342 52 11 C52 9.68 52 8.36 52 7 C52.95712891 6.70996094 52.95712891 6.70996094 53.93359375 6.4140625 C54.75988281 6.15367188 55.58617187 5.89328125 56.4375 5.625 C57.26121094 5.36976562 58.08492187 5.11453125 58.93359375 4.8515625 C61.17798016 4.19117773 61.17798016 4.19117773 62 2 C43.52 2 25.04 2 6 2 C6 2.66 6 3.32 6 4 C6.66 4.33 7.32 4.66 8 5 C5.36 5 2.72 5 0 5 C0 3.35 0 1.7 0 0 Z " fill="#D44547" transform="translate(36,42)"/>
<path d="M0 0 C25.74 0 51.48 0 78 0 C78 1.32 78 2.64 78 4 C74.04 4.66 70.08 5.32 66 6 C66 5.34 66 4.68 66 4 C67.32 3.67 68.64 3.34 70 3 C49.87 3 29.74 3 9 3 C10.98 3.66 12.96 4.32 15 5 C15.33 5.66 15.66 6.32 16 7 C15.29488281 6.85691406 14.58976562 6.71382812 13.86328125 6.56640625 C10.97588399 5.99522944 8.08390614 5.46094689 5.1875 4.9375 C4.21167969 4.76089844 3.23585938 4.58429687 2.23046875 4.40234375 C1.49441406 4.26957031 0.75835937 4.13679688 0 4 C0 2.68 0 1.36 0 0 Z " fill="#CA2A2A" transform="translate(382,43)"/>
<path d="M0 0 C24.09 0 48.18 0 73 0 C73 1.65 73 3.3 73 5 C69.7 5 66.4 5 63 5 C63 4.34 63 3.68 63 3 C45.84 3 28.68 3 11 3 C11.66 3.66 12.32 4.32 13 5 C8.71 4.67 4.42 4.34 0 4 C0 2.68 0 1.36 0 0 Z " fill="#CB2425" transform="translate(225,43)"/>
<path d="M0 0 C2.3431213 0.25561323 4.67843403 0.59270772 7 1 C7.495 1.99 7.495 1.99 8 3 C9.89533342 3.46523063 9.89533342 3.46523063 12.0625 3.625 C13.361875 3.74875 14.66125 3.8725 16 4 C16.1875 6.875 16.1875 6.875 16 10 C12.59317436 12.27121709 11.42202816 12.24468887 7.42700195 12.22705078 C6.28604568 12.22689972 5.14508942 12.22674866 3.96955872 12.22659302 C2.73823715 12.21627045 1.50691559 12.20594788 0.23828125 12.1953125 C-1.65311333 12.19106766 -1.65311333 12.19106766 -3.5827179 12.18673706 C-6.93160422 12.17743125 -10.28021791 12.15946703 -13.62902832 12.1373291 C-17.04758347 12.11685386 -20.4661668 12.10773176 -23.88476562 12.09765625 C-30.58991919 12.0755818 -37.29494385 12.04209362 -44 12 C-44 11.34 -44 10.68 -44 10 C-44.66 10 -45.32 10 -46 10 C-46 8.02 -46 6.04 -46 4 C-39.07 2.515 -39.07 2.515 -32 1 C-32.33 1.66 -32.66 2.32 -33 3 C-37.29581527 4.26761762 -40.50944298 5 -45 5 C-45 6.32 -45 7.64 -45 9 C-25.53 9 -6.06 9 14 9 C14 7.68 14 6.36 14 5 C12.205625 5.12375 12.205625 5.12375 10.375 5.25 C5.74482703 5.27471623 3.52966614 3.91197456 0 1 C0 0.67 0 0.34 0 0 Z " fill="#F2BCBA" transform="translate(424,203)"/>
<path d="M0 0 C3.96 0 7.92 0 12 0 C10.34259654 6.13239279 8.85503533 10.94857439 5 16 C4.67 15.34 4.34 14.68 4 14 C1.03824877 14.61277612 -0.38058783 15.25372522 -3 17 C-5.6875 16.625 -5.6875 16.625 -8 16 C-8.33 14.35 -8.66 12.7 -9 11 C-8.01 12.485 -8.01 12.485 -7 14 C-6.01 14.33 -5.02 14.66 -4 15 C-3.79503906 14.08476562 -3.59007812 13.16953125 -3.37890625 12.2265625 C-3.10949219 11.03804687 -2.84007812 9.84953125 -2.5625 8.625 C-2.29566406 7.44164062 -2.02882812 6.25828125 -1.75390625 5.0390625 C-1 2 -1 2 0 0 Z " fill="#D90909" transform="translate(142,161)"/>
<path d="M0 0 C11.41176471 0 11.41176471 0 16 4 C18.09555583 8.19111165 17.55842023 13.44766121 17 18 C14.78436838 20.97361086 13.26080415 22.36959793 10 24 C6.7 24 3.4 24 0 24 C0 16.08 0 8.16 0 0 Z M3 2 C3 8.6 3 15.2 3 22 C9.60914268 21.67323238 9.60914268 21.67323238 12.4375 19 C14.56423999 14.91665921 14.81870329 11.51552844 14 7 C12.60314994 4.3530128 12.60314994 4.3530128 10 3 C7.69 2.67 5.38 2.34 3 2 Z " fill="#D33B40" transform="translate(446,118)"/>
<path d="M0 0 C1.65 0 3.3 0 5 0 C3.90109517 6.91663627 2.43430815 13.42736799 0 20 C-0.66 20 -1.32 20 -2 20 C-2.03738281 20.61746094 -2.07476562 21.23492187 -2.11328125 21.87109375 C-2.58938266 28.00440018 -3.85496596 33.2543731 -6 39 C-6.391875 40.175625 -6.78375 41.35125 -7.1875 42.5625 C-7.455625 43.366875 -7.72375 44.17125 -8 45 C-9.49751807 41.10645301 -8.32822419 38.84485949 -7 35 C-5.91249618 29.97120719 -5 25.15396216 -5 20 C-4.01971384 18.65210653 -3.02028865 17.31787285 -2 16 C-2 15.01 -2 14.02 -2 13 C-2.45375 13.495 -2.9075 13.99 -3.375 14.5 C-5 16 -5 16 -7 16 C-7.103125 16.639375 -7.20625 17.27875 -7.3125 17.9375 C-7.539375 18.618125 -7.76625 19.29875 -8 20 C-8.99 20.33 -9.98 20.66 -11 21 C-9.2180842 16.08191239 -6.53287406 12.05806427 -3.65625 7.71875 C-2.11766548 5.19314899 -1.00510655 2.77409409 0 0 Z " fill="#D13131" transform="translate(366,166)"/>
<path d="M0 0 C0.99 0.33 1.98 0.66 3 1 C1.42303119 6.65919303 -0.36885433 11.73770866 -3 17 C-3.78384044 19.65150963 -4.39465854 22.29924579 -5 25 C-9.29 25 -13.58 25 -18 25 C-16.25955342 19.51759328 -14.31164061 14.31349673 -11.91796875 9.0859375 C-10.75654947 6.44679752 -9.84749247 3.75435052 -9 1 C-8.06380187 4.15506142 -7.8942877 6.96586502 -7.9375 10.25 C-7.94652344 11.14203125 -7.95554688 12.0340625 -7.96484375 12.953125 C-7.97644531 13.62859375 -7.98804688 14.3040625 -8 15 C-8.99 15 -9.98 15 -11 15 C-10.67 16.32 -10.34 17.64 -10 19 C-8.35 19 -6.7 19 -5 19 C-5.061875 17.88625 -5.061875 17.88625 -5.125 16.75 C-4.99601866 13.91241048 -4.42948778 12.41226062 -3 10 C-2.34 10 -1.68 10 -1 10 C-1 8.35 -1 6.7 -1 5 C-0.34 5 0.32 5 1 5 C0.67 3.35 0.34 1.7 0 0 Z " fill="#D41617" transform="translate(184,79)"/>
<path d="M0 0 C1.32 0 2.64 0 4 0 C4.34933594 1.13179688 4.69867188 2.26359375 5.05859375 3.4296875 C5.51813895 4.91148631 5.97777931 6.39325562 6.4375 7.875 C6.78264648 8.99455078 6.78264648 8.99455078 7.13476562 10.13671875 C8.35379647 14.15091601 8.35379647 14.15091601 10 18 C11.98 12.06 13.96 6.12 16 0 C16.66 0 17.32 0 18 0 C16.56933303 8.1698614 14.35862583 16.05394988 12 24 C10.68 24 9.36 24 8 24 C0 7.08300395 0 7.08300395 0 0 Z " fill="#DC5355" transform="translate(135,118)"/>
<path d="M0 0 C2.375 1.6875 2.375 1.6875 4 4 C4 5.65 4 7.3 4 9 C0.37 9 -3.26 9 -7 9 C-6.67 10.65 -6.34 12.3 -6 14 C-2.94152152 14.54372951 -0.11227195 15 3 15 C3 15.66 3 16.32 3 17 C-4.0214876 18.42809917 -4.0214876 18.42809917 -8 16.6875 C-10.62690861 13.15759156 -10.65360227 10.66938758 -10.41796875 6.3515625 C-10 4 -10 4 -8.375 1.375 C-5.27095134 -0.42208081 -3.53343747 -0.58890625 0 0 Z " fill="#BA3431" transform="translate(240,124)"/>
<path d="M0 0 C0.33 1.32 0.66 2.64 1 4 C0.34 4 -0.32 4 -1 4 C-1.79953138 7.28696233 -2.09658936 8.71023192 -1 12 C-0.67 12 -0.34 12 0 12 C0.66 12 1.32 12 2 12 C1.67 11.01 1.34 10.02 1 9 C2.65 8.34 4.3 7.68 6 7 C6 5.68 6 4.36 6 3 C7.32 3 8.64 3 10 3 C7.30482343 8.54889293 4.70287993 13.88845852 0 18 C-4.80157414 18.94279836 -9.17288996 18.67118524 -14 18 C-9.48432691 11.87647362 -4.77926562 5.9194965 0 0 Z M-5 9 C-5 9.99 -5 10.98 -5 12 C-4.34 12 -3.68 12 -3 12 C-3 11.01 -3 10.02 -3 9 C-3.66 9 -4.32 9 -5 9 Z " fill="#D1201F" transform="translate(493,86)"/>
<path d="M0 0 C17.16 0 34.32 0 52 0 C52 1.65 52 3.3 52 5 C50.68 4.67 49.36 4.34 48 4 C48.33 3.67 48.66 3.34 49 3 C33.49 2.67 17.98 2.34 2 2 C2 2.66 2 3.32 2 4 C2.67546875 4.03738281 3.3509375 4.07476562 4.046875 4.11328125 C4.93890625 4.17902344 5.8309375 4.24476562 6.75 4.3125 C8.07257813 4.39951172 8.07257813 4.39951172 9.421875 4.48828125 C12.32303774 5.0641181 13.79225607 6.07596148 16 8 C14.1875 8.625 14.1875 8.625 12 9 C11.01 8.34 10.02 7.68 9 7 C6.72461677 6.33386665 6.72461677 6.33386665 4.3125 5.875 C3.50425781 5.70742188 2.69601563 5.53984375 1.86328125 5.3671875 C1.24839844 5.24601562 0.63351563 5.12484375 0 5 C0 3.35 0 1.7 0 0 Z " fill="#D34245" transform="translate(164,42)"/>
<path d="M0 0 C2.475 0.495 2.475 0.495 5 1 C5 1.66 5 2.32 5 3 C5.66 3 6.32 3 7 3 C7 3.66 7 4.32 7 5 C7.763125 4.773125 8.52625 4.54625 9.3125 4.3125 C12 4 12 4 13.75 5.3125 C15 7 15 7 16 9 C17.32 8.67 18.64 8.34 20 8 C19.96519531 8.59167969 19.93039063 9.18335938 19.89453125 9.79296875 C19.72217965 14.82399409 19.90165488 17.8291508 23 22 C23.350625 22.721875 23.70125 23.44375 24.0625 24.1875 C24.97608662 26.17822239 24.97608662 26.17822239 27 28 C28.45070019 32.83566729 29.25407962 36.91840768 29 42 C26.6870518 39.6870518 26.50419025 38.52095125 25.875 35.375 C25.70742187 34.55773437 25.53984375 33.74046875 25.3671875 32.8984375 C25.24601562 32.27195313 25.12484375 31.64546875 25 31 C24.34 31 23.68 31 23 31 C22.78085938 30.31035156 22.56171875 29.62070313 22.3359375 28.91015625 C19.91285683 21.72956353 17.09863457 14.04469997 10.8125 9.375 C10.214375 8.92125 9.61625 8.4675 9 8 C9 7.34 9 6.68 9 6 C4.545 5.01 4.545 5.01 0 4 C0 2.68 0 1.36 0 0 Z " fill="#D21110" transform="translate(42,44)"/>
<path d="M0 0 C-0.99 1.485 -0.99 1.485 -2 3 C-6.455 3.495 -6.455 3.495 -11 4 C22.66 4.495 22.66 4.495 57 5 C57 4.34 57 3.68 57 3 C54.36 3 51.72 3 49 3 C48.505 2.01 48.505 2.01 48 1 C52.95 1.495 52.95 1.495 58 2 C58 3.32 58 4.64 58 6 C34.24 6 10.48 6 -14 6 C-14 4.35 -14 2.7 -14 1 C-12.04310963 0.63794536 -10.08442332 0.28558579 -8.125 -0.0625 C-7.03445313 -0.25972656 -5.94390625 -0.45695313 -4.8203125 -0.66015625 C-2 -1 -2 -1 0 0 Z " fill="#BE1416" transform="translate(500,206)"/>
<path d="M0 0 C0.66 0.33 1.32 0.66 2 1 C-1.25526534 3.69721986 -4.33576817 5.8014609 -8 8 C16.75 8.495 16.75 8.495 42 9 C42 8.34 42 7.68 42 7 C41.37351562 7.01160156 40.74703125 7.02320313 40.1015625 7.03515625 C39.28429687 7.04417969 38.46703125 7.05320313 37.625 7.0625 C36.81289063 7.07410156 36.00078125 7.08570313 35.1640625 7.09765625 C33 7 33 7 31 6 C31 5.34 31 4.68 31 4 C36.94 4.99 36.94 4.99 43 6 C43 7.32 43 8.64 43 10 C23.53 10 4.06 10 -16 10 C-16 8.68 -16 7.36 -16 6 C-15.14535156 5.80664062 -14.29070312 5.61328125 -13.41015625 5.4140625 C-12.30542969 5.15367187 -11.20070313 4.89328125 -10.0625 4.625 C-8.96035156 4.36976563 -7.85820312 4.11453125 -6.72265625 3.8515625 C-5.82417969 3.57054687 -4.92570312 3.28953125 -4 3 C-3.67 2.34 -3.34 1.68 -3 1 C-2.01 0.67 -1.02 0.34 0 0 Z " fill="#BF1619" transform="translate(395,202)"/>
<path d="M0 0 C1.4379895 0.24339111 1.4379895 0.24339111 2.9050293 0.49169922 C7.44633101 1.1368695 11.93965576 1.14370387 16.51953125 1.1328125 C17.41814377 1.13376923 18.31675629 1.13472595 19.24259949 1.13571167 C21.13609894 1.13638931 23.02960077 1.13456417 24.9230957 1.13037109 C27.79318576 1.1250359 30.663118 1.13032055 33.53320312 1.13671875 C35.38281284 1.13605753 37.23242246 1.13477545 39.08203125 1.1328125 C40.34972099 1.13584885 40.34972099 1.13584885 41.64302063 1.13894653 C47.47955745 1.11644232 53.20349903 0.6748451 59 0 C54.58038567 4.41961433 48.97521679 4.23879915 43.07881165 4.27789307 C42.06924911 4.2738446 41.05968658 4.26979614 40.01953125 4.265625 C38.9697258 4.26753845 37.91992035 4.2694519 36.83830261 4.27142334 C34.62698119 4.27278057 32.41565168 4.26911652 30.2043457 4.26074219 C26.81378417 4.25000407 23.4237486 4.26066986 20.03320312 4.2734375 C17.88281133 4.27211645 15.73241986 4.2695552 13.58203125 4.265625 C12.56639603 4.26967346 11.5507608 4.27372192 10.50434875 4.27789307 C9.5629454 4.27158875 8.62154205 4.26528442 7.65161133 4.25878906 C6.82365555 4.25719788 5.99569977 4.25560669 5.14265442 4.25396729 C3 4 3 4 0 2 C0 1.34 0 0.68 0 0 Z " fill="#D45050" transform="translate(279,199)"/>
<path d="M0 0 C2.88575819 0.39803561 3.82189513 0.79009069 5.75 3.0625 C6.1625 3.701875 6.575 4.34125 7 5 C7.99 3.35 8.98 1.7 10 0 C10.99 0.33 11.98 0.66 13 1 C12.505 1.721875 12.01 2.44375 11.5 3.1875 C9.84065095 6.29877948 9.50661126 7.54627882 10 11 C10.87680471 13.41373252 11.90389632 15.67077968 13 18 C9.83884224 16.63016497 9.0072908 16.0109362 7 13 C6.34 13 5.68 13 5 13 C3.3553326 15.46326712 3.3553326 15.46326712 2 18 C1.01 17.67 0.02 17.34 -1 17 C-0.319375 16.13375 0.36125 15.2675 1.0625 14.375 C3.2807829 11.20503097 3.2807829 11.20503097 2.875 7.9375 C2.06118994 5.20542338 1.15043112 2.60764386 0 0 Z " fill="#D54B4E" transform="translate(318,124)"/>
<path d="M0 0 C5.61 0 11.22 0 17 0 C17 0.66 17 1.32 17 2 C14.69 2 12.38 2 10 2 C10 9.26 10 16.52 10 24 C9.01 24 8.02 24 7 24 C7 16.74 7 9.48 7 2 C4.69 2 2.38 2 0 2 C0 1.34 0 0.68 0 0 Z " fill="#D1393B" transform="translate(407,118)"/>
<path d="M0 0 C1.98 0.495 1.98 0.495 4 1 C3.67 8.92 3.34 16.84 3 25 C1.68 25 0.36 25 -1 25 C-1 3 -1 3 0 0 Z " fill="#DF7071" transform="translate(293,117)"/>
<path d="M0 0 C1.32 0.33 2.64 0.66 4 1 C4.05441656 2.89551022 4.09298035 4.7914792 4.125 6.6875 C4.14820313 7.74324219 4.17140625 8.79898438 4.1953125 9.88671875 C3.99858729 13.02251859 3.33057654 15.17645373 2 18 C1.34 18 0.68 18 0 18 C0.33 20.31 0.66 22.62 1 25 C-1.9826906 26.52448631 -4.818202 27.93940067 -8 29 C-8.474375 29.804375 -8.94875 30.60875 -9.4375 31.4375 C-11.09552981 34.15666889 -12.08436939 34.89407115 -15 36 C-14.1875 33.5625 -14.1875 33.5625 -13 31 C-12.01 30.67 -11.02 30.34 -10 30 C-9.731875 29.29875 -9.46375 28.5975 -9.1875 27.875 C-8.055874 25.13527389 -7.06774245 23.78684874 -5.125 21.625 C0.26553656 15.50957466 2.6278791 10.20526594 3 2 C2.01 1.67 1.02 1.34 0 1 C0 0.67 0 0.34 0 0 Z " fill="#D80B0F" transform="translate(509,50)"/>
<path d="M0 0 C0.99 0 1.98 0 3 0 C3 7.26 3 14.52 3 22 C6.3 22 9.6 22 13 22 C13 22.66 13 23.32 13 24 C8.71 24 4.42 24 0 24 C0 16.08 0 8.16 0 0 Z " fill="#D23B3D" transform="translate(378,118)"/>
<path d="M0 0 C2.64 0 5.28 0 8 0 C8.33 0.66 8.66 1.32 9 2 C7.02 2 5.04 2 3 2 C3 8.6 3 15.2 3 22 C3.99 22.33 4.98 22.66 6 23 C6 23.33 6 23.66 6 24 C4.02 24 2.04 24 0 24 C0 16.08 0 8.16 0 0 Z " fill="#D74041" transform="translate(446,118)"/>
<path d="M0 0 C9.24 0 18.48 0 28 0 C28 0.66 28 1.32 28 2 C28.66 2 29.32 2 30 2 C30.66 3.65 31.32 5.3 32 7 C30.68 7 29.36 7 28 7 C27.34 5.68 26.68 4.36 26 3 C19.07 2.67 12.14 2.34 5 2 C5 3.98 5 5.96 5 8 C2.74754119 5.31158141 1.11786042 3.35358125 0 0 Z " fill="#CD1B1C" transform="translate(482,161)"/>
<path d="M0 0 C19.47 0 38.94 0 59 0 C59 0.99 59 1.98 59 3 C57.02 3 55.04 3 53 3 C53 2.67 53 2.34 53 2 C38.15 2 23.3 2 8 2 C8 2.33 8 2.66 8 3 C5.36 3 2.72 3 0 3 C0 2.01 0 1.02 0 0 Z " fill="#C81110" transform="translate(495,44)"/>
<path d="M0 0 C7 1 7 1 9.4375 2.5 C11.76490154 6.22384246 11.32910888 9.72158453 11 14 C10.67 14 10.34 14 10 14 C9.8046875 11.94921875 9.609375 9.8984375 9.4140625 7.84765625 C9.27742188 7.23792969 9.14078125 6.62820312 9 6 C8.34 5.67 7.68 5.34 7 5 C7 4.34 7 3.68 7 3 C5.35 3 3.7 3 2 3 C2 7.95 2 12.9 2 18 C3.65 18 5.3 18 7 18 C6.34 18.66 5.68 19.32 5 20 C3.35 20 1.7 20 0 20 C0 13.4 0 6.8 0 0 Z " fill="#FCCBCB" transform="translate(449,120)"/>
<path d="M0 0 C0.99 0 1.98 0 3 0 C3.03758423 0.97610229 3.03758423 0.97610229 3.07592773 1.97192383 C3.19193702 4.91898046 3.31464115 7.8657213 3.4375 10.8125 C3.47681641 11.83666016 3.51613281 12.86082031 3.55664062 13.91601562 C3.59853516 14.89892578 3.64042969 15.88183594 3.68359375 16.89453125 C3.72025146 17.80050049 3.75690918 18.70646973 3.79467773 19.63989258 C3.9208205 22.15048782 3.9208205 22.15048782 5 25 C3.35 24.67 1.7 24.34 0 24 C0 16.08 0 8.16 0 0 Z " fill="#D44749" transform="translate(266,117)"/>
<path d="M0 0 C3.35585467 3.0202692 4.22157001 4.55392503 6 9 C-3.24 9 -12.48 9 -22 9 C-22.33 8.01 -22.66 7.02 -23 6 C-15.08 6 -7.16 6 1 6 C0.67 4.02 0.34 2.04 0 0 Z " fill="#CC2F30" transform="translate(465,95)"/>
<path d="M0 0 C1.49828872 3.88235819 0.43110582 6.43449288 -0.9375 10.25 C-1.31777344 11.32765625 -1.69804687 12.4053125 -2.08984375 13.515625 C-2.39019531 14.33546875 -2.69054687 15.1553125 -3 16 C-3.66 16 -4.32 16 -5 16 C-5.03738281 16.61746094 -5.07476562 17.23492187 -5.11328125 17.87109375 C-5.58938266 24.00440018 -6.85496596 29.2543731 -9 35 C-9.391875 36.175625 -9.78375 37.35125 -10.1875 38.5625 C-10.455625 39.366875 -10.72375 40.17125 -11 41 C-12.49751807 37.10645301 -11.32822419 34.84485949 -10 31 C-8.91249618 25.97120719 -8 21.15396216 -8 16 C-6.625 13.75 -6.625 13.75 -5 12 C-4.34 12 -3.68 12 -3 12 C-2.86722656 11.38511719 -2.73445313 10.77023438 -2.59765625 10.13671875 C-2.33275391 8.92435547 -2.33275391 8.92435547 -2.0625 7.6875 C-1.88847656 6.88699219 -1.71445312 6.08648437 -1.53515625 5.26171875 C-1 3 -1 3 0 0 Z " fill="#DE5757" transform="translate(369,170)"/>
<path d="M0 0 C1.32 0.33 2.64 0.66 4 1 C6.68149993 0.61432869 6.68149993 0.61432869 9 0 C9 0.99 9 1.98 9 3 C7.35 3.66 5.7 4.32 4 5 C3.67 9.29 3.34 13.58 3 18 C2.01 18 1.02 18 0 18 C0 12.06 0 6.12 0 0 Z " fill="#D33E42" transform="translate(201,124)"/>
<path d="M0 0 C2 3 2 3 2 6 C2.66 6 3.32 6 4 6 C4 7.32 4 8.64 4 10 C5.75376953 9.98259766 5.75376953 9.98259766 7.54296875 9.96484375 C9.09114423 9.95546087 10.63932145 9.9463612 12.1875 9.9375 C13.34088867 9.92493164 13.34088867 9.92493164 14.51757812 9.91210938 C18.48526789 9.89508066 22.12571234 10.01395885 26 11 C26 9.35 26 7.7 26 6 C29 9.75 29 9.75 29 12 C20.75 12 12.5 12 4 12 C3.67 10.68 3.34 9.36 3 8 C2.34 8 1.68 8 1 8 C0.34 5.69 -0.32 3.38 -1 1 C-0.67 0.67 -0.34 0.34 0 0 Z " fill="#D02628" transform="translate(75,92)"/>
<path d="M0 0 C0.33 1.32 0.66 2.64 1 4 C-0.08194399 4.93910307 -1.1656268 5.87620297 -2.25 6.8125 C-2.85328125 7.33457031 -3.4565625 7.85664063 -4.078125 8.39453125 C-4.71234375 8.92433594 -5.3465625 9.45414063 -6 10 C-6.6084375 10.556875 -7.216875 11.11375 -7.84375 11.6875 C-10.75748017 13.46107489 -12.86958959 13.29773077 -16.25 13.1875 C-17.86648437 13.14689453 -17.86648437 13.14689453 -19.515625 13.10546875 C-20.33546875 13.07066406 -21.1553125 13.03585938 -22 13 C-22 12.01 -22 11.02 -22 10 C-20.0509375 9.87625 -20.0509375 9.87625 -18.0625 9.75 C-11.52244463 9.00728078 -5.97700901 7.1216682 -1.4375 2.25 C-0.963125 1.5075 -0.48875 0.765 0 0 Z " fill="#D22627" transform="translate(247,198)"/>
<path d="M0 0 C3.96 0 7.92 0 12 0 C11.67 1.65 11.34 3.3 11 5 C10.34 3.68 9.68 2.36 9 1 C6.69 1.33 4.38 1.66 2 2 C1.67 3.98 1.34 5.96 1 8 C0.34 8 -0.32 8 -1 8 C-0.67 10.31 -0.34 12.62 0 15 C-3 17 -3 17 -5.6875 16.625 C-6.8321875 16.315625 -6.8321875 16.315625 -8 16 C-8.33 14.35 -8.66 12.7 -9 11 C-8.01 12.485 -8.01 12.485 -7 14 C-6.01 14.33 -5.02 14.66 -4 15 C-3.79503906 14.08476562 -3.59007812 13.16953125 -3.37890625 12.2265625 C-3.10949219 11.03804687 -2.84007812 9.84953125 -2.5625 8.625 C-2.29566406 7.44164062 -2.02882812 6.25828125 -1.75390625 5.0390625 C-1 2 -1 2 0 0 Z " fill="#D11E1D" transform="translate(142,161)"/>
<path d="M0 0 C0 3.76056208 -1.22162579 5.70671442 -3 9 C-3.495 9.928125 -3.99 10.85625 -4.5 11.8125 C-6 14 -6 14 -9 15 C-9.433125 16.1446875 -9.433125 16.1446875 -9.875 17.3125 C-11.2648116 20.63260549 -13.10507099 21.94307675 -16 24 C-16 19.93603879 -14.40867699 18.56814021 -11.9375 15.375 C-11.53281494 14.8480957 -11.12812988 14.32119141 -10.71118164 13.77832031 C-9.48104852 12.18004164 -8.24133472 10.58958699 -7 9 C-6.2884375 8.07960937 -5.576875 7.15921875 -4.84375 6.2109375 C-3.23589916 4.13522843 -1.62168303 2.0649083 0 0 Z " fill="#F8CAC5" transform="translate(443,166)"/>
<path d="M0 0 C1.28583984 0.15662109 1.28583984 0.15662109 2.59765625 0.31640625 C-1.02734375 6.06640625 -1.02734375 6.06640625 -4.40234375 8.31640625 C-4.07234375 6.66640625 -3.74234375 5.01640625 -3.40234375 3.31640625 C-5.74546505 3.57201948 -8.08077778 3.90911397 -10.40234375 4.31640625 C-10.73234375 4.97640625 -11.06234375 5.63640625 -11.40234375 6.31640625 C-12.06234375 6.31640625 -12.72234375 6.31640625 -13.40234375 6.31640625 C-14.06234375 7.63640625 -14.72234375 8.95640625 -15.40234375 10.31640625 C-16.06234375 9.98640625 -16.72234375 9.65640625 -17.40234375 9.31640625 C-12.90755575 1.0786857 -9.33629368 -0.66311894 0 0 Z " fill="#C82A2C" transform="translate(444.40234375,160.68359375)"/>
<path d="M0 0 C0.66 0 1.32 0 2 0 C0.56933303 8.1698614 -1.64137417 16.05394988 -4 24 C-6.015625 22.140625 -6.015625 22.140625 -8 20 C-7.75 17.75 -7.75 17.75 -7 16 C-6.67 16.66 -6.34 17.32 -6 18 C-4.02 12.06 -2.04 6.12 0 0 Z " fill="#DB5251" transform="translate(151,118)"/>
<path d="M0 0 C0.66 0.33 1.32 0.66 2 1 C1.0453859 3.27246186 0.08648542 5.5429472 -0.875 7.8125 C-1.14441406 8.45509766 -1.41382813 9.09769531 -1.69140625 9.75976562 C-2.94695731 12.71490408 -4.21277178 15.31915767 -6 18 C-6.24887295 15.89807303 -6.4734719 13.79326036 -6.6875 11.6875 C-6.81511719 10.51574219 -6.94273437 9.34398438 -7.07421875 8.13671875 C-7 5 -7 5 -5.70703125 3.08203125 C-4 2 -4 2 -1 2 C-0.67 1.34 -0.34 0.68 0 0 Z " fill="#D11210" transform="translate(193,62)"/>
<path d="M0 0 C0.99 0.33 1.98 0.66 3 1 C1.42303119 6.65919303 -0.36885433 11.73770866 -3 17 C-3.78384044 19.65150963 -4.39465854 22.29924579 -5 25 C-9.29 25 -13.58 25 -18 25 C-17.505 23.515 -17.505 23.515 -17 22 C-16.67 22.66 -16.34 23.32 -16 24 C-12.7 24 -9.4 24 -6 24 C-5.87625 22.4325 -5.7525 20.865 -5.625 19.25 C-5.34290718 15.67682428 -4.79275866 13.11910856 -3 10 C-2.34 10 -1.68 10 -1 10 C-1 8.35 -1 6.7 -1 5 C-0.34 5 0.32 5 1 5 C0.67 3.35 0.34 1.7 0 0 Z " fill="#D14344" transform="translate(184,79)"/>
<path d="M0 0 C0.66 0 1.32 0 2 0 C3.5481268 2.3221902 4.84367288 4.67815004 6.0625 7.1875 C6.97608662 9.17822239 6.97608662 9.17822239 9 11 C10.45070019 15.83566729 11.25407962 19.91840768 11 25 C8.6870518 22.6870518 8.50419025 21.52095125 7.875 18.375 C7.70742187 17.55773437 7.53984375 16.74046875 7.3671875 15.8984375 C7.24601562 15.27195312 7.12484375 14.64546875 7 14 C6.34 14 5.68 14 5 14 C4.35366725 12.22934889 3.7079517 10.45847247 3.0625 8.6875 C2.70285156 7.70136719 2.34320313 6.71523437 1.97265625 5.69921875 C1.29114035 3.8079437 0.6357189 1.90715671 0 0 Z " fill="#D12C31" transform="translate(60,61)"/>
<path d="M0 0 C8.25 0 16.5 0 25 0 C24.67 0.66 24.34 1.32 24 2 C17.07 2 10.14 2 3 2 C3 3.32 3 4.64 3 6 C3.66 6 4.32 6 5 6 C5 6.99 5 7.98 5 9 C5.66 9 6.32 9 7 9 C6.67 10.98 6.34 12.96 6 15 C5.7525 14.484375 5.505 13.96875 5.25 13.4375 C4.53410248 12.04149983 3.79149759 10.65700558 2.9765625 9.31640625 C0.86824045 5.83991776 0 4.16107237 0 0 Z " fill="#BF2426" transform="translate(104,161)"/>
<path d="M0 0 C0.99 0 1.98 0 3 0 C3 5.94 3 11.88 3 18 C2.01 18 1.02 18 0 18 C0 12.06 0 6.12 0 0 Z " fill="#D7474A" transform="translate(174,124)"/>
<path d="M0 0 C-0.58172725 3.9520518 -2.55157741 6.22095053 -5.0625 9.25 C-5.79597656 10.14203125 -6.52945312 11.0340625 -7.28515625 11.953125 C-7.85105469 12.62859375 -8.41695313 13.3040625 -9 14 C-10.27617978 9.76159271 -9.72365839 7.12179181 -8 3 C-5.24731356 1.22222334 -3.31026991 0 0 0 Z " fill="#D01819" transform="translate(438,171)"/>
<path d="M0 0 C2.31 0 4.62 0 7 0 C8.26332183 4.21107278 8.00441956 6.5456709 6.0625 10.375 C5.39025121 11.59188424 4.70765749 12.8033603 4 14 C3.67 14 3.34 14 3 14 C3 12.35 3 10.7 3 9 C3.66 9 4.32 9 5 9 C5 6.69 5 4.38 5 2 C4.34 2 3.68 2 3 2 C3 2.99 3 3.98 3 5 C2.01 4.67 1.02 4.34 0 4 C0 2.68 0 1.36 0 0 Z " fill="#D20C11" transform="translate(144,162)"/>
<path d="M0 0 C1.32 1.32 2.64 2.64 4 4 C0.61227103 8.69159716 -2.78185183 13.0299782 -7 17 C-7 15.68 -7 14.36 -7 13 C-7.66 13 -8.32 13 -9 13 C-8.67 12.01 -8.34 11.02 -8 10 C-6.68 10.66 -5.36 11.32 -4 12 C-3.855625 11.38125 -3.71125 10.7625 -3.5625 10.125 C-3 8 -3 8 -2 6 C-1.01 6 -0.02 6 1 6 C0.67 4.02 0.34 2.04 0 0 Z " fill="#D2171A" transform="translate(512,70)"/>
<path d="M0 0 C0.53625 0.2475 1.0725 0.495 1.625 0.75 C0.965 0.75 0.305 0.75 -0.375 0.75 C-0.6225 1.389375 -0.87 2.02875 -1.125 2.6875 C-1.5375 3.368125 -1.95 4.04875 -2.375 4.75 C-3.0040625 4.87375 -3.633125 4.9975 -4.28125 5.125 C-7.1294634 5.97521295 -7.67428687 7.27375202 -9.125 9.8125 C-9.55296875 10.54597656 -9.9809375 11.27945313 -10.421875 12.03515625 C-10.89367187 12.88400391 -10.89367187 12.88400391 -11.375 13.75 C-11.97265625 11.9375 -11.97265625 11.9375 -12.375 9.75 C-9.89633715 4.99096733 -5.95875345 -0.62723721 0 0 Z " fill="#F9C0BC" transform="translate(286.375,48.25)"/>
<path d="M0 0 C5.28 0 10.56 0 16 0 C16 0.33 16 0.66 16 1 C13.36 1.33 10.72 1.66 8 2 C9.4540625 2.433125 9.4540625 2.433125 10.9375 2.875 C14 4 14 4 15 6 C10 5 5 4 0 3 C0 2.01 0 1.02 0 0 Z " fill="#CB1B1C" transform="translate(383,44)"/>
<path d="M0 0 C0.66 0.33 1.32 0.66 2 1 C1.67 2.32 1.34 3.64 1 5 C-0.98 5.33 -2.96 5.66 -5 6 C-5.33 6.99 -5.66 7.98 -6 9 C-7.98 9.33 -9.96 9.66 -12 10 C-8.40945767 6.11024581 -4.26101118 3.10267805 0 0 Z " fill="#D42728" transform="translate(409,192)"/>
<path d="M0 0 C0.66 0 1.32 0 2 0 C2.66 2.31 3.32 4.62 4 7 C4.33 6.34 4.66 5.68 5 5 C5.66 5 6.32 5 7 5 C7 3.68 7 2.36 7 1 C7.66 1 8.32 1 9 1 C8.55170486 2.98146451 8.09107502 4.96014211 7.625 6.9375 C7.36976563 8.03964844 7.11453125 9.14179688 6.8515625 10.27734375 C6.57054687 11.17582031 6.28953125 12.07429687 6 13 C5.01 13.495 5.01 13.495 4 14 C3.32968281 12.0429132 2.66385317 10.08428887 2 8.125 C1.62875 7.03445312 1.2575 5.94390625 0.875 4.8203125 C0 2 0 2 0 0 Z " fill="#FED4D3" transform="translate(140,123)"/>
<path d="M0 0 C1.65 0.33 3.3 0.66 5 1 C4.61328125 1.44730469 4.2265625 1.89460938 3.828125 2.35546875 C0.81609925 5.8521026 -2.14321031 9.37407463 -5 13 C-5 11.68 -5 10.36 -5 9 C-4.34 9 -3.68 9 -3 9 C-2.87625 8.2575 -2.7525 7.515 -2.625 6.75 C-2.04513299 4.19858515 -1.26291261 2.2732427 0 0 Z " fill="#D52022" transform="translate(200,49)"/>
<path d="M0 0 C0.66 0 1.32 0 2 0 C2.33 1.65 2.66 3.3 3 5 C6.05847848 5.54372951 8.88772805 6 12 6 C12 6.66 12 7.32 12 8 C4.73846154 9.47692308 4.73846154 9.47692308 1 7.0625 C0.34 6.381875 -0.32 5.70125 -1 5 C-0.67 3.35 -0.34 1.7 0 0 Z " fill="#CC3D41" transform="translate(231,133)"/>
<path d="M0 0 C1.32 0 2.64 0 4 0 C2.50923566 3.2826932 0.61379679 5.93077441 -1.625 8.75 C-2.57246094 9.94882813 -2.57246094 9.94882813 -3.5390625 11.171875 C-4.02117187 11.77515625 -4.50328125 12.3784375 -5 13 C-5.33 11.68 -5.66 10.36 -6 9 C-5.34 9 -4.68 9 -4 9 C-4.33 8.01 -4.66 7.02 -5 6 C-3.35 5.34 -1.7 4.68 0 4 C0 2.68 0 1.36 0 0 Z " fill="#CD191B" transform="translate(499,89)"/>
<path d="M0 0 C1.58338289 5.16861414 -0.18637937 9.08799152 -2.25 13.9375 C-4 16 -4 16 -7.1875 16.3125 C-8.115625 16.209375 -9.04375 16.10625 -10 16 C-10 15.67 -10 15.34 -10 15 C-8.35 15 -6.7 15 -5 15 C-4.87753906 14.28457031 -4.75507813 13.56914062 -4.62890625 12.83203125 C-3.98864625 9.94887287 -3.06448444 7.41407527 -1.9375 4.6875 C-1.39416016 3.36298828 -1.39416016 3.36298828 -0.83984375 2.01171875 C-0.56269531 1.34785156 -0.28554687 0.68398437 0 0 Z " fill="#F4B5B3" transform="translate(137,201)"/>
<path d="M0 0 C3.95291129 1.3176371 6.38910745 2.7253212 9 6 C9.390625 9.015625 9.390625 9.015625 9.25 12.25 C9.21390625 13.32765625 9.1778125 14.4053125 9.140625 15.515625 C9.07101562 16.74539062 9.07101562 16.74539062 9 18 C8.67 18 8.34 18 8 18 C8 14.37 8 10.74 8 7 C7.01 7 6.02 7 5 7 C3.4375 5.625 3.4375 5.625 2 4 C1.34 3.34 0.68 2.68 0 2 C0 1.34 0 0.68 0 0 Z " fill="#D44C50" transform="translate(454,118)"/>
<path d="M0 0 C0.33 1.32 0.66 2.64 1 4 C0.34 4 -0.32 4 -1 4 C-1.33 5.32 -1.66 6.64 -2 8 C-2.928125 8.12375 -2.928125 8.12375 -3.875 8.25 C-6.1765144 8.79994195 -6.1765144 8.79994195 -7.125 11 C-7.41375 11.66 -7.7025 12.32 -8 13 C-8.99 13.495 -8.99 13.495 -10 14 C-8.43632643 10.47761953 -6.30504111 7.72876006 -3.875 4.75 C-3.15054687 3.85796875 -2.42609375 2.9659375 -1.6796875 2.046875 C-0.84824219 1.03367187 -0.84824219 1.03367187 0 0 Z " fill="#D43E42" transform="translate(493,86)"/>
<path d="M0 0 C-7.30934715 3.50848663 -13.99054432 3.30372936 -22 3 C-22 2.67 -22 2.34 -22 2 C-19.08483516 1.46915208 -16.16839443 0.95000945 -13.25 0.4375 C-12.425 0.28603516 -11.6 0.13457031 -10.75 -0.02148438 C-9.95078125 -0.16005859 -9.1515625 -0.29863281 -8.328125 -0.44140625 C-7.5949707 -0.57232666 -6.86181641 -0.70324707 -6.10644531 -0.83813477 C-3.83766713 -1.01247412 -2.16221421 -0.66874807 0 0 Z " fill="#CF3A3A" transform="translate(338,200)"/>
<path d="M0 0 C3 3.75 3 3.75 3 6 C-5.25 6 -13.5 6 -22 6 C-22 5.67 -22 5.34 -22 5 C-14.74 5 -7.48 5 0 5 C0 3.35 0 1.7 0 0 Z " fill="#CC4444" transform="translate(101,98)"/>
<path d="M0 0 C0.66 0 1.32 0 2 0 C1.34 1.32 0.68 2.64 0 4 C-0.66 4 -1.32 4 -2 4 C-2.268125 4.763125 -2.53625 5.52625 -2.8125 6.3125 C-3.95134505 8.88988618 -4.81416671 10.26954864 -7 12 C-7.66 12 -8.32 12 -9 12 C-9 12.66 -9 13.32 -9 14 C-9.66 13.67 -10.32 13.34 -11 13 C-9.54300902 11.20724155 -8.08436345 9.41582771 -6.625 7.625 C-5.40683594 6.12839844 -5.40683594 6.12839844 -4.1640625 4.6015625 C-2 2 -2 2 0 0 Z " fill="#F7C0C0" transform="translate(530,57)"/>
<path d="M0 0 C-0.99 1.485 -0.99 1.485 -2 3 C-4.6015625 3.29296875 -4.6015625 3.29296875 -7.625 3.1875 C-9.12933594 3.14689453 -9.12933594 3.14689453 -10.6640625 3.10546875 C-11.82035156 3.05326172 -11.82035156 3.05326172 -13 3 C-13.33 3.99 -13.66 4.98 -14 6 C-14 4.35 -14 2.7 -14 1 C-12.04310963 0.63794536 -10.08442332 0.28558579 -8.125 -0.0625 C-7.03445313 -0.25972656 -5.94390625 -0.45695313 -4.8203125 -0.66015625 C-2 -1 -2 -1 0 0 Z " fill="#D04445" transform="translate(500,206)"/>
<path d="M0 0 C0.33 1.32 0.66 2.64 1 4 C1.66 4 2.32 4 3 4 C3 5.98 3 7.96 3 10 C4.32 10 5.64 10 7 10 C7.33 8.02 7.66 6.04 8 4 C8.66 4 9.32 4 10 4 C9.34 6.31 8.68 8.62 8 11 C6.02 11 4.04 11 2 11 C1.01 7.7 0.02 4.4 -1 1 C-0.67 0.67 -0.34 0.34 0 0 Z " fill="#CA2C2F" transform="translate(124,205)"/>
<path d="M0 0 C9.24 0 18.48 0 28 0 C27.67 0.66 27.34 1.32 27 2 C18 2 9 2 0 2 C0 1.34 0 0.68 0 0 Z " fill="#B02223" transform="translate(482,161)"/>
<path d="M0 0 C0.99 0 1.98 0 3 0 C3 1.32 3 2.64 3 4 C2.01 4 1.02 4 0 4 C-0.2475 4.969375 -0.495 5.93875 -0.75 6.9375 C-1.1625 7.948125 -1.575 8.95875 -2 10 C-4.125 10.875 -4.125 10.875 -6 11 C-2.03773585 2.88679245 -2.03773585 2.88679245 0 0 Z " fill="#CE393D" transform="translate(323,131)"/>
<path d="M0 0 C0.33 0 0.66 0 1 0 C1 1.65 1 3.3 1 5 C-1.58789062 6.07421875 -1.58789062 6.07421875 -4.17578125 7.1484375 C-6.26533932 8.06806692 -6.26533932 8.06806692 -9 10 C-9.99 9.34 -10.98 8.68 -12 8 C-4.71428571 3.42857143 -4.71428571 3.42857143 0 4 C0 2.68 0 1.36 0 0 Z " fill="#F4C2C0" transform="translate(216,43)"/>
<path d="M0 0 C6.63093294 0.34773428 12.053928 0.96089654 18 4 C18 4.33 18 4.66 18 5 C11.56318772 4.48914188 6.04057576 3.27057103 0 1 C0 0.67 0 0.34 0 0 Z " fill="#FAC0BC" transform="translate(382,47)"/>
<path d="M0 0 C0.66 0.33 1.32 0.66 2 1 C-1.1997862 3.65125142 -4.41279167 5.90746181 -8 8 C-8.33 8.33 -8.66 8.66 -9 9 C-10.66617115 9.04063832 -12.33388095 9.042721 -14 9 C-14.33 8.34 -14.66 7.68 -15 7 C-13.9275 6.71125 -12.855 6.4225 -11.75 6.125 C-8.90184789 5.27055437 -6.51227358 4.54601451 -4 3 C-3.67 2.34 -3.34 1.68 -3 1 C-2.01 0.67 -1.02 0.34 0 0 Z " fill="#D52121" transform="translate(395,202)"/>
<path d="M0 0 C1 2 1 2 0.3125 5.0625 C-0.120625 6.031875 -0.55375 7.00125 -1 8 C-3.0625 8.6875 -3.0625 8.6875 -5 9 C-5.33 9.99 -5.66 10.98 -6 12 C-6.66 12 -7.32 12 -8 12 C-6.59023295 8.96147295 -4.91129772 6.4060405 -2.875 3.75 C-2.06675781 2.69039063 -2.06675781 2.69039063 -1.2421875 1.609375 C-0.83226562 1.07828125 -0.42234375 0.5471875 0 0 Z " fill="#F9C7C4" transform="translate(501,92)"/>
<path d="M0 0 C0.33 0.66 0.66 1.32 1 2 C-0.89501612 5.69029454 -3.36021174 8.81404865 -6 12 C-6.99 11.67 -7.98 11.34 -9 11 C-6.03 7.37 -3.06 3.74 0 0 Z " fill="#FAC7C6" transform="translate(511,80)"/>
<path d="M0 0 C1.05147939 3.41730801 1.36370888 6.43565297 1 10 C-0.875 12.875 -0.875 12.875 -3 15 C-3.66 15 -4.32 15 -5 15 C-3.33333333 10 -1.66666667 5 0 0 Z " fill="#CE2828" transform="translate(181,65)"/>
<path d="M0 0 C1.98 0.495 1.98 0.495 4 1 C4.05441656 2.89551022 4.09298035 4.7914792 4.125 6.6875 C4.14820313 7.74324219 4.17140625 8.79898438 4.1953125 9.88671875 C3.99858729 13.02251859 3.33057654 15.17645373 2 18 C1.01 18 0.02 18 -1 18 C0.875 13.25 0.875 13.25 2 11 C2.22467831 9.46331135 2.40796805 7.92031946 2.5625 6.375 C2.64628906 5.55773438 2.73007812 4.74046875 2.81640625 3.8984375 C2.87699219 3.27195313 2.93757813 2.64546875 3 2 C2.01 1.67 1.02 1.34 0 1 C0 0.67 0 0.34 0 0 Z " fill="#DF595B" transform="translate(509,50)"/>
<path d="M0 0 C2.96404505 2.80804268 5.44499019 5.18315774 7 9 C5.35 8.67 3.7 8.34 2 8 C2 7.34 2 6.68 2 6 C1.34 6 0.68 6 0 6 C0 4.02 0 2.04 0 0 Z " fill="#D32C2F" transform="translate(524,183)"/>
<path d="M0 0 C0.99 0.33 1.98 0.66 3 1 C3 2.32 3 3.64 3 5 C3.66 5.33 4.32 5.66 5 6 C5 7.65 5 9.3 5 11 C5.66 11.33 6.32 11.66 7 12 C6.67 13.32 6.34 14.64 6 16 C5.73445313 15.30132812 5.46890625 14.60265625 5.1953125 13.8828125 C4.84210938 12.97273437 4.48890625 12.06265625 4.125 11.125 C3.77695313 10.22007812 3.42890625 9.31515625 3.0703125 8.3828125 C2.11469105 5.87782993 2.11469105 5.87782993 0 4 C0 2.68 0 1.36 0 0 Z " fill="#D9454B" transform="translate(110,176)"/>
<path d="M0 0 C3.96 0 7.92 0 12 0 C11.67 1.65 11.34 3.3 11 5 C10.34 3.68 9.68 2.36 9 1 C5.59919423 1.10407917 5.59919423 1.10407917 2 2 C0.00916823 4.4251788 0.00916823 4.4251788 -1 7 C-1.33 6.34 -1.66 5.68 -2 5 C-1.34 3.35 -0.68 1.7 0 0 Z " fill="#C64948" transform="translate(142,161)"/>
<path d="M0 0 C1.98 0 3.96 0 6 0 C6.33 1.32 6.66 2.64 7 4 C4.36 4 1.72 4 -1 4 C-0.67 2.68 -0.34 1.36 0 0 Z " fill="#FFE5E6" transform="translate(234,127)"/>
<path d="M0 0 C2.97 0.495 2.97 0.495 6 1 C5.67 2.98 5.34 4.96 5 7 C4.34 7 3.68 7 3 7 C3.33 5.68 3.66 4.36 4 3 C3.34 3 2.68 3 2 3 C0.3553326 5.46326712 0.3553326 5.46326712 -1 8 C-1.99 7.01 -2.98 6.02 -4 5 C-3.01 4.67 -2.02 4.34 -1 4 C-0.26676204 1.98491642 -0.26676204 1.98491642 0 0 Z " fill="#FDDBD8" transform="translate(326,122)"/>
<path d="M0 0 C0.99 0.495 0.99 0.495 2 1 C1.97679688 1.6290625 1.95359375 2.258125 1.9296875 2.90625 C1.80815919 8.67016398 2.36226294 13.47263742 4 19 C3.34 19 2.68 19 2 19 C-0.52775351 15.20836973 -0.22443035 12.19125969 -0.125 7.8125 C-0.11597656 7.06291016 -0.10695313 6.31332031 -0.09765625 5.54101562 C-0.07412578 3.69387346 -0.03825561 1.84689588 0 0 Z " fill="#CA2327" transform="translate(86,53)"/>
<path d="M0 0 C-3.30196268 3.30196268 -7.4326031 4.3827842 -12 5 C-12.66 4.67 -13.32 4.34 -14 4 C-9.33286748 0.166284 -5.97171665 -0.13572083 0 0 Z " fill="#FABBB9" transform="translate(460,47)"/>
<path d="M0 0 C2.475 0.495 2.475 0.495 5 1 C5 1.66 5 2.32 5 3 C5.66 3 6.32 3 7 3 C7 3.66 7 4.32 7 5 C7.99 5 8.98 5 10 5 C10.33 5.99 10.66 6.98 11 8 C10.34 8 9.68 8 9 8 C9 7.34 9 6.68 9 6 C4.545 5.01 4.545 5.01 0 4 C0 2.68 0 1.36 0 0 Z " fill="#D6292B" transform="translate(42,44)"/>
<path d="M0 0 C0.99 0 1.98 0 3 0 C2.67 2.64 2.34 5.28 2 8 C2.99 8.33 3.98 8.66 5 9 C4.34 9.66 3.68 10.32 3 11 C0.39665076 8.28817788 0.00543309 7.10866187 -0.1875 3.25 C-0.125625 2.1775 -0.06375 1.105 0 0 Z " fill="#D21513" transform="translate(487,163)"/>
<path d="M0 0 C0.66 0 1.32 0 2 0 C1.67 1.65 1.34 3.3 1 5 C0.01 5.33 -0.98 5.66 -2 6 C-2 6.66 -2 7.32 -2 8 C-3.32 8.33 -4.64 8.66 -6 9 C-4.4722133 5.56247993 -2.49818944 2.81046312 0 0 Z " fill="#D13537" transform="translate(507,68)"/>
<path d="M0 0 C5.99291003 0.41330414 9.25036599 1.31903365 14 5 C13.34 5.66 12.68 6.32 12 7 C9.5 5.625 9.5 5.625 7 4 C7 3.34 7 2.68 7 2 C4.69 2 2.38 2 0 2 C0 1.34 0 0.68 0 0 Z " fill="#FBC8C2" transform="translate(165,47)"/>
<path d="M0 0 C-3.61186839 2.74501997 -7.30395263 5.37012014 -11 8 C-11.33 6.68 -11.66 5.36 -12 4 C-10.68 4 -9.36 4 -8 4 C-8 3.01 -8 2.02 -8 1 C-5.07175348 0.02391783 -3.04386724 -0.08226668 0 0 Z " fill="#D22627" transform="translate(542,49)"/>
<path d="M0 0 C2.125 0.375 2.125 0.375 4 1 C3.34 1 2.68 1 2 1 C0.20724134 4.11910856 -0.34290718 6.67682428 -0.625 10.25 C-0.69976562 11.14203125 -0.77453125 12.0340625 -0.8515625 12.953125 C-0.90054688 13.62859375 -0.94953125 14.3040625 -1 15 C-1.33 15 -1.66 15 -2 15 C-2.05386629 12.87527424 -2.09273071 10.75016348 -2.125 8.625 C-2.14820313 7.44164062 -2.17140625 6.25828125 -2.1953125 5.0390625 C-2 2 -2 2 0 0 Z " fill="#FEE0DB" transform="translate(206,127)"/>
<path d="M0 0 C2.3431213 0.25561323 4.67843403 0.59270772 7 1 C7.33 1.66 7.66 2.32 8 3 C11.02934491 3.65772428 11.02934491 3.65772428 14 4 C14 4.33 14 4.66 14 5 C7.77551932 5.42927453 4.84121441 4.99400188 0 1 C0 0.67 0 0.34 0 0 Z " fill="#F0ADAC" transform="translate(424,203)"/>
<path d="M0 0 C1.32 0 2.64 0 4 0 C4 1.65 4 3.3 4 5 C5.32 5.33 6.64 5.66 8 6 C7.34 7.32 6.68 8.64 6 10 C4.99723227 8.52270825 3.99785546 7.04311423 3 5.5625 C2.443125 4.73878906 1.88625 3.91507812 1.3125 3.06640625 C0 1 0 1 0 0 Z " fill="#CF262A" transform="translate(424,75)"/>
<path d="M0 0 C1.65 0 3.3 0 5 0 C5 0.66 5 1.32 5 2 C5.94875 1.95875 6.8975 1.9175 7.875 1.875 C11 2 11 2 13 4 C8.71 3.67 4.42 3.34 0 3 C0 2.01 0 1.02 0 0 Z " fill="#C41515" transform="translate(225,44)"/>
<path d="M0 0 C1 3 1 3 0.4375 5.0625 C-1.58618642 7.79007734 -3.78821942 8.1621442 -7 9 C-6.02180976 7.68677212 -5.0424189 6.37443848 -4.0625 5.0625 C-3.51722656 4.33160156 -2.97195313 3.60070312 -2.41015625 2.84765625 C-1 1 -1 1 0 0 Z " fill="#CE2E32" transform="translate(417,183)"/>
<path d="M0 0 C0.99 0.66 1.98 1.32 3 2 C1.84414715 5.91211733 0.64465038 8.8745041 -2 12 C-2 10.35 -2 8.7 -2 7 C-1.34 7 -0.68 7 0 7 C0 4.69 0 2.38 0 0 Z " fill="#D02527" transform="translate(149,164)"/>
<path d="M0 0 C5.625 -0.25 5.625 -0.25 9 2 C8.67 3.65 8.34 5.3 8 7 C7.34 5.68 6.68 4.36 6 3 C4.35 3 2.7 3 1 3 C0.67 2.01 0.34 1.02 0 0 Z " fill="#DB5D5F" transform="translate(234,124)"/>
<path d="M0 0 C0.93619813 3.15506142 1.1057123 5.96586502 1.0625 9.25 C1.05347656 10.14203125 1.04445312 11.0340625 1.03515625 11.953125 C1.02355469 12.62859375 1.01195312 13.3040625 1 14 C0.34 13.67 -0.32 13.34 -1 13 C-2.17611086 8.00152882 -1.96237913 4.73279673 0 0 Z " fill="#D12926" transform="translate(175,80)"/>
<path d="M0 0 C0.99 0 1.98 0 3 0 C2.32829194 3.8063457 1.27253436 7.35206816 0 11 C-0.33 11 -0.66 11 -1 11 C-1.125 3.375 -1.125 3.375 0 0 Z " fill="#CF2323" transform="translate(188,69)"/>
<path d="M0 0 C0.66 0 1.32 0 2 0 C2 0.66 2 1.32 2 2 C2.598125 2.04125 3.19625 2.0825 3.8125 2.125 C6 3 6 3 7.8125 5.9375 C8.204375 6.948125 8.59625 7.95875 9 9 C8.67 9.66 8.34 10.32 8 11 C6.66375099 9.35653302 5.33107149 7.71016314 4 6.0625 C3.2575 5.14597656 2.515 4.22945313 1.75 3.28515625 C0 1 0 1 0 0 Z " fill="#C82626" transform="translate(414,62)"/>
<path d="M0 0 C1.75091019 0.08754551 3.50079551 0.19573373 5.25 0.3125 C6.22453125 0.37050781 7.1990625 0.42851563 8.203125 0.48828125 C11.25341611 1.04636524 12.70711276 1.96369776 15 4 C13.1875 4.625 13.1875 4.625 11 5 C10.01 4.34 9.02 3.68 8 3 C5.95415921 2.33841957 5.95415921 2.33841957 3.8125 1.875 C2.554375 1.58625 1.29625 1.2975 0 1 C0 0.67 0 0.34 0 0 Z " fill="#CC2627" transform="translate(165,46)"/>
<path d="M0 0 C1.3609623 2.7219246 0.70366248 4.1831957 0.0625 7.125 C-0.13214844 8.03507813 -0.32679688 8.94515625 -0.52734375 9.8828125 C-0.68332031 10.58148438 -0.83929688 11.28015625 -1 12 C-1.66 11.67 -2.32 11.34 -3 11 C-2.25 3.375 -2.25 3.375 0 0 Z " fill="#F7B6B1" transform="translate(425,190)"/>
<path d="M0 0 C1.32 0.33 2.64 0.66 4 1 C4 1.99 4 2.98 4 4 C4.66 4 5.32 4 6 4 C6 5.98 6 7.96 6 10 C3.25722422 6.80009492 1.3697164 3.99500618 0 0 Z " fill="#CE2025" transform="translate(495,181)"/>
<path d="M0 0 C0.66 0 1.32 0 2 0 C1.34 3.3 0.68 6.6 0 10 C-0.66 10 -1.32 10 -2 10 C-1.125 2.25 -1.125 2.25 0 0 Z " fill="#CC3B39" transform="translate(151,118)"/>
<path d="M0 0 C0.99 0.33 1.98 0.66 3 1 C2.34 2.32 1.68 3.64 1 5 C1.99 5 2.98 5 4 5 C4 5.66 4 6.32 4 7 C2.02 7 0.04 7 -2 7 C-1.125 1.125 -1.125 1.125 0 0 Z " fill="#FCE6E2" transform="translate(317,136)"/>
<path d="M0 0 C2.91227269 3.28804981 4.49701212 5.59885603 5 10 C2.5 8.9375 2.5 8.9375 0 7 C-0.3125 3.3125 -0.3125 3.3125 0 0 Z " fill="#D1383C" transform="translate(92,78)"/>
<path d="M0 0 C2.3828125 -0.29296875 2.3828125 -0.29296875 5.125 -0.1875 C6.03507812 -0.16042969 6.94515625 -0.13335937 7.8828125 -0.10546875 C8.58148438 -0.07066406 9.28015625 -0.03585938 10 0 C6.96474514 2.02350324 5.80573798 2.32124018 2.3125 2.625 C1.50425781 2.69976562 0.69601562 2.77453125 -0.13671875 2.8515625 C-0.75160156 2.90054688 -1.36648438 2.94953125 -2 3 C-1.34 2.01 -0.68 1.02 0 0 Z " fill="#FEF0EB" transform="translate(380,204)"/>
<path d="M0 0 C0.33 0 0.66 0 1 0 C1.433125 1.36125 1.433125 1.36125 1.875 2.75 C2.76531776 5.32202908 3.71494413 7.61346766 5 10 C4.01 10 3.02 10 2 10 C1.67 9.34 1.34 8.68 1 8 C0.34 7.67 -0.32 7.34 -1 7 C-0.67 4.69 -0.34 2.38 0 0 Z " fill="#D01C23" transform="translate(421,196)"/>
<path d="M0 0 C0.33 0.66 0.66 1.32 1 2 C0.34 2 -0.32 2 -1 2 C-1.66 3.32 -2.32 4.64 -3 6 C-5.31 6 -7.62 6 -10 6 C-6.74147635 3.8276509 -3.40755272 1.92880342 0 0 Z " fill="#D83F40" transform="translate(349,193)"/>
<path d="M0 0 C0.99 0 1.98 0 3 0 C1.54744301 3.82946843 -0.42895561 5.12050295 -4 7 C-2.92598892 4.08482708 -2.22189824 2.22189824 0 0 Z " fill="#FDD8D2" transform="translate(430,183)"/>
<path d="M0 0 C0 3.73120489 -1.18031476 5.78055689 -3 9 C-3.99 9.495 -3.99 9.495 -5 10 C-4.49701212 5.59885603 -2.91227269 3.28804981 0 0 Z " fill="#F8BFBE" transform="translate(443,166)"/>
<path d="M0 0 C0.99 0.495 0.99 0.495 2 1 C3.67654729 0.72057545 5.34608154 0.39171753 7 0 C7 0.99 7 1.98 7 3 C5.02 3.66 3.04 4.32 1 5 C0.67 3.35 0.34 1.7 0 0 Z " fill="#D75057" transform="translate(203,124)"/>
<path d="M0 0 C1.32 0.66 2.64 1.32 4 2 C4 3.98 4 5.96 4 8 C2.35 6.35 0.7 4.7 -1 3 C-0.67 2.01 -0.34 1.02 0 0 Z " fill="#D21C1D" transform="translate(53,48)"/>
<path d="M0 0 C0.78375 0.04125 1.5675 0.0825 2.375 0.125 C1.4159375 0.7746875 1.4159375 0.7746875 0.4375 1.4375 C-1.89246003 3.03739177 -1.89246003 3.03739177 -2.625 6.125 C-3.615 6.125 -4.605 6.125 -5.625 6.125 C-4.86443086 2.32215429 -4.27658992 0.20364714 0 0 Z " fill="#D13F44" transform="translate(235.625,124.875)"/>
<path d="M0 0 C0.99 0 1.98 0 3 0 C3.66 2.97 4.32 5.94 5 9 C3.0625 7.875 3.0625 7.875 1 6 C0.25 2.8125 0.25 2.8125 0 0 Z " fill="#D44748" transform="translate(136,118)"/>
<path d="M0 0 C0.33 0 0.66 0 1 0 C1.1875 3.375 1.1875 3.375 1 7 C0.01 7.66 -0.98 8.32 -2 9 C-2.25 3.375 -2.25 3.375 0 0 Z " fill="#CC2B2E" transform="translate(170,94)"/>
<path d="M0 0 C2.25 0.25 2.25 0.25 4 1 C3.34 1 2.68 1 2 1 C1.34 2.32 0.68 3.64 0 5 C-1.32 4.67 -2.64 4.34 -4 4 C-2.25 1.9375 -2.25 1.9375 0 0 Z " fill="#F8CFC7" transform="translate(284,48)"/>
<path d="M0 0 C-0.7734375 0.37125 -0.7734375 0.37125 -1.5625 0.75 C-4.77184151 2.39581616 -7.87585664 4.1976096 -11 6 C-11 4.68 -11 3.36 -11 2 C-7.17010894 0.19769832 -4.21878192 -0.19622241 0 0 Z " fill="#CD2B30" transform="translate(99,47)"/>
<path d="M0 0 C0.33 0.66 0.66 1.32 1 2 C0.0625 4.625 0.0625 4.625 -1 7 C-2.32 6.67 -3.64 6.34 -5 6 C-5 5.01 -5 4.02 -5 3 C-3.68 3.33 -2.36 3.66 -1 4 C-0.67 2.68 -0.34 1.36 0 0 Z " fill="#F4A9A6" transform="translate(139,169)"/>
<path d="M0 0 C2.31 0 4.62 0 7 0 C7.33 0.66 7.66 1.32 8 2 C6.576875 2.185625 6.576875 2.185625 5.125 2.375 C1.91332809 2.71687177 1.91332809 2.71687177 0 5 C0 3.35 0 1.7 0 0 Z " fill="#CD2727" transform="translate(447,118)"/>
<path d="M0 0 C0.33 0.66 0.66 1.32 1 2 C-0.73397418 5.65047197 -2.19333016 7.55609075 -6 9 C-5.1875 6.5625 -5.1875 6.5625 -4 4 C-3.01 3.67 -2.02 3.34 -1 3 C-0.67 2.01 -0.34 1.02 0 0 Z " fill="#D7504E" transform="translate(500,77)"/>
<path d="M0 0 C0.556875 0.226875 1.11375 0.45375 1.6875 0.6875 C1.048125 0.790625 0.40875 0.89375 -0.25 1 C-1.2709375 1.3403125 -1.2709375 1.3403125 -2.3125 1.6875 C-2.6425 2.6775 -2.9725 3.6675 -3.3125 4.6875 C-4.6325 4.0275 -5.9525 3.3675 -7.3125 2.6875 C-2.88173077 -0.38942308 -2.88173077 -0.38942308 0 0 Z " fill="#F9CDCB" transform="translate(97.3125,48.3125)"/>
<path d="M0 0 C0.86625 0.3403125 0.86625 0.3403125 1.75 0.6875 C-0.60277269 3.41176311 -2.87496331 4.5016763 -6.25 5.6875 C-6.25 4.6975 -6.25 3.7075 -6.25 2.6875 C-4.08146295 0.51896295 -3.10906228 -0.43181421 0 0 Z " fill="#D01515" transform="translate(212.25,44.3125)"/>
<path d="M0 0 C2.46278801 2.46278801 2.99771255 4.70676982 4 8 C3.01 8.33 2.02 8.66 1 9 C0.67 6.03 0.34 3.06 0 0 Z " fill="#FBD7D4" transform="translate(122,206)"/>
<path d="M0 0 C0.33 0.66 0.66 1.32 1 2 C-0.1875 5.0625 -0.1875 5.0625 -2 8 C-4.1875 8.875 -4.1875 8.875 -6 9 C-4.47291037 5.56404834 -2.40072955 2.88087546 0 0 Z " fill="#D64A4B" transform="translate(424,174)"/>
<path d="M0 0 C3 1 3 1 4 3 C4.06950541 4.54023996 4.08452357 6.08334988 4.0625 7.625 C4.05347656 8.44226563 4.04445313 9.25953125 4.03515625 10.1015625 C4.02355469 10.72804687 4.01195312 11.35453125 4 12 C3.67 12 3.34 12 3 12 C2.8046875 9.94921875 2.609375 7.8984375 2.4140625 5.84765625 C2.27742188 5.23792969 2.14078125 4.62820312 2 4 C1.34 3.67 0.68 3.34 0 3 C0 2.01 0 1.02 0 0 Z " fill="#FDC1BB" transform="translate(456,122)"/>
<path d="M0 0 C0.66 0 1.32 0 2 0 C1.42647107 3.87132028 -0.48704352 6.08172796 -3 9 C-3 7.68 -3 6.36 -3 5 C-2.34 5 -1.68 5 -1 5 C-0.67 3.35 -0.34 1.7 0 0 Z " fill="#CA2523" transform="translate(198,53)"/>
<path d="M0 0 C0.99 0.66 1.98 1.32 3 2 C2.54625 2.7425 2.0925 3.485 1.625 4.25 C0.31255428 6.47106199 -0.86367159 8.68781872 -2 11 C-1.85892253 9.54119891 -1.71197585 8.08296449 -1.5625 6.625 C-1.48128906 5.81289063 -1.40007812 5.00078125 -1.31640625 4.1640625 C-1 2 -1 2 0 0 Z " fill="#CC2123" transform="translate(275,51)"/>
<path d="M0 0 C2.475 0.495 2.475 0.495 5 1 C5 4.3 5 7.6 5 11 C4.67 11 4.34 11 4 11 C3.896875 9.9275 3.79375 8.855 3.6875 7.75 C3.02599507 4.14179128 2.42516579 2.63604977 0 0 Z " fill="#D03034" transform="translate(178,51)"/>
<path d="M0 0 C0.33 0.99 0.66 1.98 1 3 C-2 5 -2 5 -4.1875 4.625 C-4.785625 4.41875 -5.38375 4.2125 -6 4 C-4.02 2.68 -2.04 1.36 0 0 Z " fill="#D3373B" transform="translate(403,197)"/>
<path d="M0 0 C4.55384615 -0.36923077 4.55384615 -0.36923077 6.8125 1.5 C7.204375 1.995 7.59625 2.49 8 3 C5.36 3 2.72 3 0 3 C0 2.01 0 1.02 0 0 Z " fill="#C11718" transform="translate(495,44)"/>
<path d="M0 0 C1.98 0 3.96 0 6 0 C6 0.66 6 1.32 6 2 C3.69 2.33 1.38 2.66 -1 3 C-0.67 2.01 -0.34 1.02 0 0 Z " fill="#C9110E" transform="translate(98,44)"/>
</svg>
